<?xml version="1.0" standalone="no"?>
<!DOCTYPE svg PUBLIC "-//W3C//DTD SVG 20010904//EN"
 "http://www.w3.org/TR/2001/REC-SVG-20010904/DTD/svg10.dtd">
<svg version="1.0" xmlns="http://www.w3.org/2000/svg"
 width="605.000000pt" height="155.000000pt" viewBox="0 0 605.000000 155.000000"
 preserveAspectRatio="xMidYMid meet">
<metadata>
Created by potrace 1.16, written by Peter Selinger 2001-2019
</metadata>
<g transform="translate(0.000000,155.000000) scale(0.100000,-0.100000)"
fill="#000000" stroke="none">
<path d="M50 1255 l0 -245 795 0 c437 0 795 -2 795 -4 0 -2 -14 -34 -30 -72
-34 -74 -34 -91 0 -45 12 17 26 31 31 31 6 0 8 -73 7 -187 l-3 -188 -517 -3
-518 -2 0 -245 0 -245 1040 0 1040 0 0 245 0 245 -515 0 -515 0 0 195 0 195
35 -38 36 -37 -27 60 c-14 33 -28 68 -31 78 -5 16 37 17 791 17 l796 0 0 245
0 245 -1605 0 -1605 0 0 -245z m3198 3 l-3 -233 -1592 -2 -1593 -3 0 235 0
235 1595 0 1595 0 -2 -232z m-568 -963 l0 -235 -1025 0 -1025 0 0 235 0 235
1025 0 1025 0 0 -235z"/>
<path d="M2725 1280 c0 -68 1 -70 25 -69 14 0 19 3 13 6 -9 3 -13 27 -13 69 0
45 -4 64 -12 64 -9 0 -13 -21 -13 -70z"/>
<path d="M790 1330 c0 -5 5 -10 10 -10 6 0 10 5 10 10 0 6 -4 10 -10 10 -5 0
-10 -4 -10 -10z"/>
<path d="M2790 1330 c0 -5 5 -10 10 -10 6 0 10 5 10 10 0 6 -4 10 -10 10 -5 0
-10 -4 -10 -10z"/>
<path d="M388 1313 c-2 -10 -1 -36 2 -58 4 -31 9 -40 24 -40 11 0 20 6 22 13
1 7 0 8 -3 2 -10 -21 -23 -8 -23 24 0 24 5 36 18 39 16 4 16 5 0 6 -10 0 -18
8 -18 16 0 21 -17 19 -22 -2z"/>
<path d="M968 1313 c-2 -10 -1 -36 2 -58 4 -31 9 -40 24 -40 11 0 20 6 22 13
1 7 0 8 -3 2 -10 -21 -23 -8 -23 24 0 24 5 36 18 39 16 4 16 5 0 6 -10 0 -18
8 -18 16 0 21 -17 19 -22 -2z"/>
<path d="M1138 1313 c-2 -10 -1 -36 2 -58 4 -31 9 -40 24 -40 11 0 20 6 22 13
1 7 0 8 -3 2 -10 -21 -23 -8 -23 24 0 24 5 36 18 39 16 4 16 5 0 6 -10 0 -18
8 -18 16 0 21 -17 19 -22 -2z"/>
<path d="M1828 1313 c-2 -10 -1 -36 2 -58 4 -31 9 -40 24 -40 11 0 20 6 22 13
1 7 0 8 -3 2 -10 -21 -23 -8 -23 24 0 24 5 36 18 39 16 4 16 5 0 6 -10 0 -18
8 -18 16 0 21 -17 19 -22 -2z"/>
<path d="M2378 1313 c-2 -10 -1 -36 2 -58 4 -31 9 -40 24 -40 11 0 20 6 22 13
1 7 0 8 -3 2 -10 -21 -23 -8 -23 24 0 24 5 36 18 39 16 4 16 5 0 6 -10 0 -18
8 -18 16 0 21 -17 19 -22 -2z"/>
<path d="M2458 1313 c-2 -10 -1 -36 2 -58 4 -31 9 -40 24 -40 11 0 20 6 22 13
1 7 0 8 -3 2 -10 -21 -23 -8 -23 24 0 24 5 36 18 39 16 4 16 5 0 6 -10 0 -18
8 -18 16 0 21 -17 19 -22 -2z"/>
<path d="M3078 1313 c-2 -10 -1 -36 2 -58 4 -31 9 -40 24 -40 11 0 20 6 22 13
1 7 0 8 -3 2 -10 -21 -23 -8 -23 24 0 24 5 36 18 39 16 4 16 5 0 6 -10 0 -18
8 -18 16 0 21 -17 19 -22 -2z"/>
<path d="M182 1288 c-15 -15 -15 -51 0 -66 28 -28 78 -7 78 33 0 27 -18 45
-45 45 -12 0 -26 -5 -33 -12z m53 -33 c0 -23 -4 -30 -20 -30 -21 0 -31 25 -21
51 11 28 41 12 41 -21z"/>
<path d="M292 1288 c-15 -15 -16 -50 0 -66 17 -17 53 -15 68 3 14 17 0 21 -17
4 -20 -20 -45 -2 -41 28 3 31 34 44 50 21 8 -10 9 -10 5 2 -5 19 -48 25 -65 8z"/>
<path d="M472 1288 c-15 -15 -15 -51 0 -66 28 -28 78 -7 78 33 0 12 -5 26 -12
33 -7 7 -21 12 -33 12 -12 0 -26 -5 -33 -12z m53 -33 c0 -23 -4 -30 -20 -30
-21 0 -31 25 -21 51 11 28 41 12 41 -21z"/>
<path d="M575 1234 c0 -62 1 -64 25 -63 14 0 19 3 13 6 -7 2 -13 13 -13 23 0
13 5 17 20 13 26 -7 50 13 50 42 0 30 -18 43 -60 43 l-35 0 0 -64z m70 21 c0
-23 -4 -30 -20 -30 -21 0 -31 25 -21 51 11 28 41 12 41 -21z"/>
<path d="M695 1254 c0 -40 2 -44 25 -44 17 0 21 3 12 9 -8 5 -12 21 -10 37 2
23 8 29 26 28 12 0 22 3 22 7 0 4 -17 8 -37 7 l-38 0 0 -44z"/>
<path d="M785 1255 c0 -42 2 -45 25 -44 14 0 19 3 13 6 -8 2 -13 22 -13 44 0
25 -5 39 -12 39 -9 0 -13 -16 -13 -45z"/>
<path d="M845 1254 c0 -40 2 -44 25 -44 17 0 21 3 12 9 -20 12 -11 65 12 69
16 3 18 -1 14 -37 -3 -38 -2 -41 22 -41 15 0 20 3 13 8 -6 4 -13 23 -15 42 -3
33 -5 35 -43 37 l-40 2 0 -45z"/>
<path d="M1222 1288 c-15 -15 -15 -51 0 -66 17 -17 53 -15 69 5 13 15 12 15
-7 3 -22 -14 -54 -8 -54 10 0 5 16 10 35 10 22 0 35 5 35 13 0 19 -21 37 -45
37 -12 0 -26 -5 -33 -12z m56 -15 c2 -8 -6 -13 -22 -13 -25 0 -33 10 -19 24
10 10 36 3 41 -11z"/>
<path d="M1325 1254 c0 -40 2 -44 25 -44 17 0 21 3 12 9 -20 12 -11 65 12 69
16 3 18 -1 14 -37 -3 -32 0 -41 12 -41 11 0 15 11 15 37 0 29 4 38 19 41 16 3
18 -1 14 -37 -3 -38 -2 -41 22 -41 15 0 20 3 13 8 -6 4 -13 23 -15 42 l-3 35
-70 1 -70 2 0 -44z"/>
<path d="M1505 1234 c0 -62 1 -64 25 -63 14 0 19 3 13 6 -7 2 -13 13 -13 23 0
13 5 17 20 13 26 -7 50 13 50 42 0 30 -18 43 -60 43 l-35 0 0 -64z m70 21 c0
-23 -4 -30 -20 -30 -21 0 -31 25 -21 51 11 28 41 12 41 -21z"/>
<path d="M1722 1288 c-7 -7 -12 -21 -12 -33 0 -43 54 -62 81 -28 13 15 12 15
-7 3 -22 -14 -54 -8 -54 10 0 5 16 10 35 10 22 0 35 5 35 13 0 19 -21 37 -45
37 -12 0 -26 -5 -33 -12z m56 -15 c2 -8 -6 -13 -22 -13 -25 0 -33 10 -19 24
10 10 36 3 41 -11z"/>
<path d="M1915 1289 c-4 -6 -4 -13 -1 -16 3 -4 6 -1 6 5 0 17 37 15 43 -2 4
-11 -3 -16 -26 -18 -24 -2 -32 -8 -32 -23 0 -17 7 -20 50 -22 28 -1 44 0 38 3
-7 3 -13 21 -13 39 0 21 -6 35 -16 39 -23 9 -42 7 -49 -5z m53 -51 c-7 -20
-48 -23 -48 -4 0 11 9 16 26 16 16 0 24 -5 22 -12z"/>
<path d="M2075 1254 c0 -40 2 -44 25 -44 17 0 21 3 12 9 -20 12 -11 65 12 69
16 3 18 -1 14 -37 -3 -32 0 -41 12 -41 11 0 15 11 15 37 0 29 4 38 19 41 16 3
18 -1 14 -37 -3 -38 -2 -41 22 -41 15 0 20 3 13 8 -6 4 -13 23 -15 42 l-3 35
-70 1 -70 2 0 -44z"/>
<path d="M2261 1287 c-29 -29 0 -84 40 -74 18 5 20 2 16 -19 -4 -21 -1 -24 22
-23 14 0 20 3 14 6 -8 3 -13 25 -13 58 0 34 5 55 13 58 6 2 -9 5 -34 5 -26 0
-52 -5 -58 -11z m54 -32 c0 -23 -4 -30 -20 -30 -21 0 -31 25 -21 51 11 28 41
12 41 -21z"/>
<path d="M2632 1288 c-15 -15 -16 -50 0 -66 17 -17 53 -15 68 3 14 17 0 21
-17 4 -20 -20 -45 -2 -41 28 3 31 34 44 50 21 8 -10 9 -10 5 2 -5 19 -48 25
-65 8z"/>
<path d="M2785 1255 c0 -42 2 -45 25 -44 14 0 19 3 13 6 -8 2 -13 22 -13 44 0
25 -5 39 -12 39 -9 0 -13 -16 -13 -45z"/>
<path d="M2852 1288 c-7 -7 -12 -21 -12 -33 0 -43 54 -62 81 -28 13 15 12 15
-7 3 -22 -14 -54 -8 -54 10 0 5 16 10 35 10 22 0 35 5 35 13 0 19 -21 37 -45
37 -12 0 -26 -5 -33 -12z m56 -15 c2 -8 -6 -13 -22 -13 -25 0 -33 10 -19 24
10 10 36 3 41 -11z"/>
<path d="M2955 1254 c0 -40 2 -44 25 -44 17 0 21 3 12 9 -20 12 -11 65 12 69
16 3 18 -1 14 -37 -3 -38 -2 -41 22 -41 15 0 20 3 13 8 -6 4 -13 23 -15 42 -3
33 -5 35 -43 37 l-40 2 0 -45z"/>
<path d="M2020 1220 c0 -5 5 -10 10 -10 6 0 10 5 10 10 0 6 -4 10 -10 10 -5 0
-10 -4 -10 -10z"/>
<path d="M1053 1173 c15 -2 39 -2 55 0 15 2 2 4 -28 4 -30 0 -43 -2 -27 -4z"/>
<path d="M1633 1173 c15 -2 39 -2 55 0 15 2 2 4 -28 4 -30 0 -43 -2 -27 -4z"/>
<path d="M2543 1173 c15 -2 39 -2 55 0 15 2 2 4 -28 4 -30 0 -43 -2 -27 -4z"/>
<path d="M1360 370 c0 -5 5 -10 10 -10 6 0 10 5 10 10 0 6 -4 10 -10 10 -5 0
-10 -4 -10 -10z"/>
<path d="M958 353 c-2 -10 -1 -36 2 -58 4 -31 9 -40 24 -40 11 0 20 6 22 13 1
7 0 8 -3 2 -10 -21 -23 -8 -23 24 0 24 5 36 18 39 16 4 16 5 0 6 -10 0 -18 8
-18 16 0 21 -17 19 -22 -2z"/>
<path d="M1538 353 c-2 -10 -1 -36 2 -58 4 -31 9 -40 24 -40 11 0 20 6 22 13
1 7 0 8 -3 2 -10 -21 -23 -8 -23 24 0 24 5 36 18 39 16 4 16 5 0 6 -10 0 -18
8 -18 16 0 21 -17 19 -22 -2z"/>
<path d="M1708 353 c-2 -10 -1 -36 2 -58 4 -31 9 -40 24 -40 11 0 20 6 22 13
1 7 0 8 -3 2 -10 -21 -23 -8 -23 24 0 24 5 36 18 39 16 4 16 5 0 6 -10 0 -18
8 -18 16 0 21 -17 19 -22 -2z"/>
<path d="M2398 353 c-2 -10 -1 -36 2 -58 4 -31 9 -40 24 -40 11 0 20 6 22 13
1 7 0 8 -3 2 -10 -21 -23 -8 -23 24 0 24 5 36 18 39 16 4 16 5 0 6 -10 0 -18
8 -18 16 0 21 -17 19 -22 -2z"/>
<path d="M752 328 c-15 -15 -15 -51 0 -66 15 -15 51 -15 66 0 28 28 7 78 -33
78 -12 0 -26 -5 -33 -12z m53 -33 c0 -23 -4 -30 -20 -30 -21 0 -31 25 -21 51
11 28 41 12 41 -21z"/>
<path d="M862 328 c-15 -15 -16 -50 0 -66 17 -17 53 -15 68 3 14 17 0 21 -17
4 -20 -20 -45 -2 -41 28 3 31 34 44 50 21 8 -10 9 -10 5 2 -5 19 -48 25 -65 8z"/>
<path d="M1042 328 c-15 -15 -15 -51 0 -66 15 -15 51 -15 66 0 28 28 7 78 -33
78 -12 0 -26 -5 -33 -12z m53 -33 c0 -23 -4 -30 -20 -30 -21 0 -31 25 -21 51
11 28 41 12 41 -21z"/>
<path d="M1145 274 c0 -62 1 -64 25 -63 14 0 19 3 13 6 -7 2 -13 13 -13 23 0
13 5 17 20 13 26 -7 50 13 50 42 0 30 -18 43 -60 43 l-35 0 0 -64z m70 21 c0
-23 -4 -30 -20 -30 -21 0 -31 25 -21 51 11 28 41 12 41 -21z"/>
<path d="M1265 294 c0 -40 2 -44 25 -44 17 0 21 3 12 9 -8 5 -12 21 -10 37 2
23 8 29 26 28 12 0 22 3 22 7 0 4 -17 8 -37 7 l-38 0 0 -44z"/>
<path d="M1355 295 c0 -42 2 -45 25 -44 14 0 19 3 13 6 -8 2 -13 22 -13 44 0
25 -5 39 -12 39 -9 0 -13 -16 -13 -45z"/>
<path d="M1415 294 c0 -40 2 -44 25 -44 17 0 21 3 12 9 -20 12 -11 65 12 69
16 3 18 -1 14 -37 -3 -38 -2 -41 22 -41 15 0 20 3 13 8 -6 4 -13 23 -15 42 -3
33 -5 35 -43 37 l-40 2 0 -45z"/>
<path d="M1792 328 c-7 -7 -12 -21 -12 -33 0 -43 54 -62 81 -28 13 15 12 15
-7 3 -22 -14 -54 -8 -54 10 0 5 16 10 35 10 22 0 35 5 35 13 0 19 -21 37 -45
37 -12 0 -26 -5 -33 -12z m56 -15 c2 -8 -6 -13 -22 -13 -25 0 -33 10 -19 24
10 10 36 3 41 -11z"/>
<path d="M1895 294 c0 -40 2 -44 25 -44 17 0 21 3 12 9 -20 12 -11 65 12 69
16 3 18 -1 14 -37 -3 -32 0 -41 12 -41 11 0 15 11 15 37 0 29 4 38 19 41 16 3
18 -1 14 -37 -3 -38 -2 -41 22 -41 15 0 20 3 13 8 -6 4 -13 23 -15 42 l-3 35
-70 1 -70 2 0 -44z"/>
<path d="M2075 274 c0 -62 1 -64 25 -63 14 0 19 3 13 6 -7 2 -13 13 -13 23 0
13 5 17 20 13 26 -7 50 13 50 42 0 30 -18 43 -60 43 l-35 0 0 -64z m70 21 c0
-23 -4 -30 -20 -30 -21 0 -31 25 -21 51 11 28 41 12 41 -21z"/>
<path d="M2292 328 c-7 -7 -12 -21 -12 -33 0 -43 54 -62 81 -28 13 15 12 15
-7 3 -22 -14 -54 -8 -54 10 0 5 16 10 35 10 22 0 35 5 35 13 0 19 -21 37 -45
37 -12 0 -26 -5 -33 -12z m56 -15 c2 -8 -6 -13 -22 -13 -25 0 -33 10 -19 24
10 10 36 3 41 -11z"/>
<path d="M2485 329 c-4 -6 -4 -13 -1 -16 3 -4 6 -1 6 5 0 17 37 15 43 -2 4
-11 -3 -16 -26 -18 -24 -2 -32 -8 -32 -23 0 -17 7 -20 50 -22 28 -1 44 0 38 3
-7 3 -13 21 -13 39 0 21 -6 35 -16 39 -23 9 -42 7 -49 -5z m53 -51 c-7 -20
-48 -23 -48 -4 0 11 9 16 26 16 16 0 24 -5 22 -12z"/>
<path d="M1623 213 c15 -2 39 -2 55 0 15 2 2 4 -28 4 -30 0 -43 -2 -27 -4z"/>
<path d="M2203 213 c15 -2 39 -2 55 0 15 2 2 4 -28 4 -30 0 -43 -2 -27 -4z"/>
<path d="M2930 295 l0 -245 1540 0 1540 0 0 245 0 245 -1540 0 -1540 0 0 -245z
m3060 0 l0 -235 -1525 0 -1525 0 0 235 0 235 1525 0 1525 0 0 -235z"/>
<path d="M5165 320 c0 -68 1 -70 25 -69 14 0 19 3 13 6 -9 3 -13 27 -13 69 0
45 -4 64 -12 64 -9 0 -13 -21 -13 -70z"/>
<path d="M5445 320 c0 -68 1 -70 25 -69 14 0 19 3 13 6 -9 3 -13 27 -13 69 0
45 -4 64 -12 64 -9 0 -13 -21 -13 -70z"/>
<path d="M3670 370 c0 -5 5 -10 10 -10 6 0 10 5 10 10 0 6 -4 10 -10 10 -5 0
-10 -4 -10 -10z"/>
<path d="M3268 353 c-2 -10 -1 -36 2 -58 4 -31 9 -40 24 -40 11 0 20 6 22 13
1 7 0 8 -3 2 -10 -21 -23 -8 -23 24 0 24 5 36 18 39 16 4 16 5 0 6 -10 0 -18
8 -18 16 0 21 -17 19 -22 -2z"/>
<path d="M3848 353 c-2 -10 -1 -36 2 -58 4 -31 9 -40 24 -40 11 0 20 6 22 13
1 7 0 8 -3 2 -10 -21 -23 -8 -23 24 0 24 5 36 18 39 16 4 16 5 0 6 -10 0 -18
8 -18 16 0 21 -17 19 -22 -2z"/>
<path d="M4018 353 c-2 -10 -1 -36 2 -58 4 -31 9 -40 24 -40 11 0 20 6 22 13
1 7 0 8 -3 2 -10 -21 -23 -8 -23 24 0 24 5 36 18 39 16 4 16 5 0 6 -10 0 -18
8 -18 16 0 21 -17 19 -22 -2z"/>
<path d="M4708 353 c-2 -10 -1 -36 2 -58 4 -31 9 -40 24 -40 11 0 20 6 22 13
1 7 0 8 -3 2 -10 -21 -23 -8 -23 24 0 24 5 36 18 39 16 4 16 5 0 6 -10 0 -18
8 -18 16 0 21 -17 19 -22 -2z"/>
<path d="M5618 353 c-2 -10 -1 -36 2 -58 4 -31 9 -40 24 -40 11 0 20 6 22 13
1 7 0 8 -3 2 -10 -21 -23 -8 -23 24 0 24 5 36 18 39 16 4 16 5 0 6 -10 0 -18
8 -18 16 0 21 -17 19 -22 -2z"/>
<path d="M3062 328 c-28 -28 -7 -78 33 -78 27 0 45 18 45 45 0 27 -18 45 -45
45 -12 0 -26 -5 -33 -12z m53 -33 c0 -23 -4 -30 -20 -30 -21 0 -31 25 -21 51
11 28 41 12 41 -21z"/>
<path d="M3172 328 c-15 -15 -16 -50 0 -66 17 -17 53 -15 68 3 14 17 0 21 -17
4 -20 -20 -45 -2 -41 28 3 31 34 44 50 21 8 -10 9 -10 5 2 -5 19 -48 25 -65 8z"/>
<path d="M3352 328 c-28 -28 -7 -78 33 -78 27 0 45 18 45 45 0 27 -18 45 -45
45 -12 0 -26 -5 -33 -12z m53 -33 c0 -23 -4 -30 -20 -30 -21 0 -31 25 -21 51
11 28 41 12 41 -21z"/>
<path d="M3455 274 c0 -62 1 -64 25 -63 14 0 19 3 13 6 -7 2 -13 13 -13 23 0
13 5 17 20 13 26 -7 50 13 50 42 0 30 -18 43 -60 43 l-35 0 0 -64z m70 21 c0
-23 -4 -30 -20 -30 -21 0 -31 25 -21 51 11 28 41 12 41 -21z"/>
<path d="M3575 294 c0 -40 2 -44 25 -44 17 0 21 3 12 9 -8 5 -12 21 -10 37 2
23 8 29 26 28 12 0 22 3 22 7 0 4 -17 8 -37 7 l-38 0 0 -44z"/>
<path d="M3665 295 c0 -42 2 -45 25 -44 14 0 19 3 13 6 -8 2 -13 22 -13 44 0
25 -5 39 -12 39 -9 0 -13 -16 -13 -45z"/>
<path d="M3725 294 c0 -40 2 -44 25 -44 17 0 21 3 12 9 -20 12 -11 65 12 69
16 3 18 -1 14 -37 -3 -38 -2 -41 22 -41 15 0 20 3 13 8 -6 4 -13 23 -15 42 -3
33 -5 35 -43 37 l-40 2 0 -45z"/>
<path d="M4102 328 c-7 -7 -12 -21 -12 -33 0 -43 54 -62 81 -28 13 15 12 15
-7 3 -22 -14 -54 -8 -54 10 0 5 16 10 35 10 22 0 35 5 35 13 0 19 -21 37 -45
37 -12 0 -26 -5 -33 -12z m56 -15 c2 -8 -6 -13 -22 -13 -25 0 -33 10 -19 24
10 10 36 3 41 -11z"/>
<path d="M4205 294 c0 -40 2 -44 25 -44 17 0 21 3 12 9 -20 12 -11 65 12 69
16 3 18 -1 14 -37 -3 -32 0 -41 12 -41 11 0 15 11 15 37 0 29 4 38 19 41 16 3
18 -1 14 -37 -3 -38 -2 -41 22 -41 15 0 20 3 13 8 -6 4 -13 23 -15 42 l-3 35
-70 1 -70 2 0 -44z"/>
<path d="M4385 274 c0 -62 1 -64 25 -63 14 0 19 3 13 6 -7 2 -13 13 -13 23 0
13 5 17 20 13 26 -7 50 13 50 42 0 30 -18 43 -60 43 l-35 0 0 -64z m70 21 c0
-23 -4 -30 -20 -30 -21 0 -31 25 -21 51 11 28 41 12 41 -21z"/>
<path d="M4602 328 c-7 -7 -12 -21 -12 -33 0 -43 54 -62 81 -28 13 15 12 15
-7 3 -22 -14 -54 -8 -54 10 0 5 16 10 35 10 22 0 35 5 35 13 0 19 -21 37 -45
37 -12 0 -26 -5 -33 -12z m56 -15 c2 -8 -6 -13 -22 -13 -25 0 -33 10 -19 24
10 10 36 3 41 -11z"/>
<path d="M4795 329 c-4 -6 -4 -13 -1 -16 3 -4 6 -1 6 5 0 17 37 15 43 -2 4
-11 -3 -16 -26 -18 -24 -2 -32 -8 -32 -23 0 -17 7 -20 50 -22 28 -1 44 0 38 3
-7 3 -13 21 -13 39 0 21 -6 35 -16 39 -23 9 -42 7 -49 -5z m53 -51 c-7 -20
-48 -23 -48 -4 0 11 9 16 26 16 16 0 24 -5 22 -12z"/>
<path d="M4962 328 c-15 -15 -16 -50 0 -66 17 -17 53 -15 68 3 14 17 0 21 -17
4 -20 -20 -45 -2 -41 28 3 31 34 44 50 21 8 -10 9 -10 5 2 -5 19 -48 25 -65 8z"/>
<path d="M5065 329 c-4 -6 -4 -13 -1 -16 3 -4 6 -1 6 5 0 17 37 15 43 -2 4
-11 -3 -16 -26 -18 -24 -2 -32 -8 -32 -23 0 -17 7 -20 50 -22 28 -1 44 0 38 3
-7 3 -13 21 -13 39 0 21 -6 35 -16 39 -23 9 -42 7 -49 -5z m53 -51 c-7 -20
-48 -23 -48 -4 0 11 9 16 26 16 16 0 24 -5 22 -12z"/>
<path d="M5232 328 c-15 -15 -16 -50 0 -66 17 -17 53 -15 68 3 14 17 0 21 -17
4 -20 -20 -45 -2 -41 28 3 31 34 44 50 21 8 -10 9 -10 5 2 -5 19 -48 25 -65 8z"/>
<path d="M5329 298 l6 -43 50 -2 c28 0 44 1 38 4 -8 3 -13 22 -13 44 0 24 -5
39 -12 39 -8 0 -13 -14 -13 -37 0 -28 -5 -38 -17 -41 -15 -3 -18 4 -18 37 0
27 -4 41 -13 41 -10 0 -12 -11 -8 -42z"/>
<path d="M5515 329 c-4 -6 -4 -13 -1 -16 3 -4 6 -1 6 5 0 17 37 15 43 -2 4
-11 -3 -16 -26 -18 -24 -2 -32 -8 -32 -23 0 -17 7 -20 50 -22 28 -1 44 0 38 3
-7 3 -13 21 -13 39 0 21 -6 35 -16 39 -23 9 -42 7 -49 -5z m53 -51 c-7 -20
-48 -23 -48 -4 0 11 9 16 26 16 16 0 24 -5 22 -12z"/>
<path d="M5702 328 c-28 -28 -7 -78 33 -78 27 0 45 18 45 45 0 27 -18 45 -45
45 -12 0 -26 -5 -33 -12z m53 -33 c0 -23 -4 -30 -20 -30 -21 0 -31 25 -21 51
11 28 41 12 41 -21z"/>
<path d="M5805 294 c0 -40 2 -44 25 -44 17 0 21 3 12 9 -8 5 -12 21 -10 37 2
23 8 29 26 28 12 0 22 3 22 7 0 4 -17 8 -37 7 l-38 0 0 -44z"/>
<path d="M4900 260 c0 -5 5 -10 10 -10 6 0 10 5 10 10 0 6 -4 10 -10 10 -5 0
-10 -4 -10 -10z"/>
<path d="M3933 213 c15 -2 39 -2 55 0 15 2 2 4 -28 4 -30 0 -43 -2 -27 -4z"/>
<path d="M4513 213 c15 -2 39 -2 55 0 15 2 2 4 -28 4 -30 0 -43 -2 -27 -4z"/>
</g>
</svg>
